<svg width="64" height="46" viewBox="0 0 64 46" fill="none" xmlns="http://www.w3.org/2000/svg">
<path d="M53.7 32.88V6.6H46.99V32.88H53.7ZM43.63 32.88V6.6H36.92V32.88H43.63ZM33.56 16.5V6.6H20.2V16.5H33.56ZM27.23 36.87C27.3 35.45 26.75 34.06 25.73 33.05C24.71 32.04 23.3 31.5 21.85 31.57C18.91 31.57 16.53 33.91 16.53 36.8C16.53 39.69 18.91 42.03 21.85 42.03C23.28 42.1 24.67 41.59 25.69 40.6C26.71 39.63 27.27 38.27 27.23 36.87ZM16.84 16.5V6.6H3.42V16.5H16.84ZM13.11 36.87C13.04 34.56 13.93 32.33 15.58 30.69C17.23 29.05 19.5 28.16 21.84 28.21V25.16C18.64 25.01 15.52 26.19 13.25 28.42C10.98 30.65 9.78 33.72 9.93 36.87C9.93 37.8 10.06 38.72 10.31 39.61H0V0H53.57L60.22 6.6V26.28H63.58V32.88H60.22V39.6H30.08C28.87 43.07 25.57 45.41 21.85 45.45C19.51 45.53 17.24 44.65 15.58 43.02C13.92 41.4 13.03 39.17 13.11 36.87Z" fill="#FFC64F"/>
</svg>
